<svg width="14" height="15" viewBox="0 0 14 15" fill="none" xmlns="http://www.w3.org/2000/svg">
<path d="M0 7.75C0 3.89453 3.11719 0.75 7 0.75C10.8555 0.75 14 3.89453 14 7.75C14 11.6328 10.8555 14.75 7 14.75C3.11719 14.75 0 11.6328 0 7.75ZM9.76172 4.57812C9.35156 4.16797 8.64062 4.16797 8.23047 4.57812L7.62891 5.17969L9.57031 7.12109L10.1719 6.51953C10.582 6.08203 10.582 5.39844 10.1719 4.98828L9.76172 4.57812ZM3.91016 9.0625L3.5 10.7031C3.47266 10.8672 3.5 11.0312 3.60938 11.1406C3.71875 11.25 3.88281 11.2773 4.01953 11.25L5.6875 10.8398C5.82422 10.7852 5.96094 10.7031 6.07031 10.5938L8.96875 7.72266L7.02734 5.78125L4.12891 8.65234C4.01953 8.78906 3.9375 8.92578 3.91016 9.0625Z" fill="#212121" fill-opacity="0.64"/>
</svg>
