<svg width="11" height="11" viewBox="0 0 11 11" fill="none" xmlns="http://www.w3.org/2000/svg">
<path d="M10.375 5.5C10.375 5.92188 10.0234 6.27344 9.625 6.27344H6.25V9.64844C6.25 10.0469 5.89844 10.375 5.5 10.375C5.07812 10.375 4.75 10.0469 4.75 9.64844V6.27344H1.375C0.953125 6.27344 0.625 5.92188 0.625 5.5C0.625 5.10156 0.953125 4.77344 1.375 4.77344H4.75V1.39844C4.75 0.976562 5.07812 0.625 5.5 0.625C5.89844 0.625 6.25 0.976562 6.25 1.39844V4.77344H9.625C10.0234 4.75 10.375 5.10156 10.375 5.5Z" fill="#212121" fill-opacity="0.64"/>
</svg>
