<svg width="13" height="15" viewBox="0 0 13 15" fill="none" xmlns="http://www.w3.org/2000/svg">
<path d="M4.06641 1.24219C4.20312 0.941406 4.50391 0.75 4.83203 0.75H8.14062C8.46875 0.75 8.76953 0.941406 8.90625 1.24219L9.125 1.625H11.75C12.2148 1.625 12.625 2.03516 12.625 2.5C12.625 2.99219 12.2148 3.375 11.75 3.375H1.25C0.757812 3.375 0.375 2.99219 0.375 2.5C0.375 2.03516 0.757812 1.625 1.25 1.625H3.875L4.06641 1.24219ZM11.1484 13.5195C11.1211 14.2305 10.5469 14.75 9.83594 14.75H3.13672C2.42578 14.75 1.85156 14.2305 1.82422 13.5195L1.22266 4.25H11.75L11.1484 13.5195Z" fill="#212121" fill-opacity="0.64"/>
</svg>
