<svg width="3" height="11" viewBox="0 0 3 11" fill="none" xmlns="http://www.w3.org/2000/svg">
<path d="M1.5 7.9375C2.20312 7.9375 2.8125 8.54688 2.8125 9.25C2.8125 9.97656 2.20312 10.5625 1.5 10.5625C0.773438 10.5625 0.1875 9.97656 0.1875 9.25C0.1875 8.54688 0.773438 7.9375 1.5 7.9375ZM1.5 4.1875C2.20312 4.1875 2.8125 4.79688 2.8125 5.5C2.8125 6.22656 2.20312 6.8125 1.5 6.8125C0.773438 6.8125 0.1875 6.22656 0.1875 5.5C0.1875 4.79688 0.773438 4.1875 1.5 4.1875ZM1.5 3.0625C0.773438 3.0625 0.1875 2.47656 0.1875 1.75C0.1875 1.04688 0.773438 0.4375 1.5 0.4375C2.20312 0.4375 2.8125 1.04688 2.8125 1.75C2.8125 2.47656 2.20312 3.0625 1.5 3.0625Z" fill="#212121" fill-opacity="0.64"/>
</svg>
