<svg width="12" height="13" viewBox="0 0 12 13" fill="none" xmlns="http://www.w3.org/2000/svg">
<path d="M10.5 5C11.3203 5 12 5.67969 12 6.5V8.75C12 9.17188 11.6484 9.5 11.25 9.5H10.5V11.75C10.5 12.1719 10.1484 12.5 9.75 12.5H2.25C1.82812 12.5 1.5 12.1719 1.5 11.75V9.5H0.75C0.328125 9.5 0 9.17188 0 8.75V6.5C0 5.67969 0.65625 5 1.5 5H10.5ZM9 11V8.75H3V11H9ZM10.125 7.4375C10.4297 7.4375 10.6875 7.20312 10.6875 6.875C10.6875 6.57031 10.4297 6.3125 10.125 6.3125C9.79688 6.3125 9.5625 6.57031 9.5625 6.875C9.5625 7.20312 9.79688 7.4375 10.125 7.4375ZM3 2V4.25H1.5V1.25C1.5 0.851562 1.82812 0.5 2.25 0.5H8.67188C8.88281 0.5 9.07031 0.59375 9.21094 0.734375L10.2656 1.78906C10.4062 1.92969 10.5 2.11719 10.5 2.32812V4.25H9V2.63281L8.36719 2H3Z" fill="#212121" fill-opacity="0.64"/>
</svg>
