<svg width="9" height="13" viewBox="0 0 9 13" fill="none" xmlns="http://www.w3.org/2000/svg">
<path d="M0.304688 0.570312C0.515625 0.476562 0.75 0.5 0.914062 0.640625L1.875 1.46094L2.8125 0.640625C3.02344 0.476562 3.32812 0.476562 3.53906 0.640625L4.5 1.46094L5.4375 0.640625C5.64844 0.476562 5.95312 0.476562 6.16406 0.640625L7.125 1.46094L8.0625 0.640625C8.22656 0.5 8.46094 0.476562 8.67188 0.570312C8.85938 0.664062 9 0.851562 9 1.0625V11.9375C9 12.1719 8.85938 12.3594 8.67188 12.4531C8.46094 12.5469 8.22656 12.5234 8.0625 12.3828L7.125 11.5625L6.16406 12.3828C5.95312 12.5469 5.64844 12.5469 5.4375 12.3828L4.5 11.5625L3.53906 12.3828C3.32812 12.5469 3.02344 12.5469 2.8125 12.3828L1.875 11.5625L0.914062 12.3828C0.75 12.5234 0.515625 12.5469 0.304688 12.4531C0.117188 12.3594 0 12.1719 0 11.9375V1.0625C0 0.851562 0.117188 0.664062 0.304688 0.570312ZM2.25 3.875C2.03906 3.875 1.875 4.0625 1.875 4.25C1.875 4.46094 2.03906 4.625 2.25 4.625H6.75C6.9375 4.625 7.125 4.46094 7.125 4.25C7.125 4.0625 6.9375 3.875 6.75 3.875H2.25ZM2.25 9.125H6.75C6.9375 9.125 7.125 8.96094 7.125 8.75C7.125 8.5625 6.9375 8.375 6.75 8.375H2.25C2.03906 8.375 1.875 8.5625 1.875 8.75C1.875 8.96094 2.03906 9.125 2.25 9.125ZM2.25 6.125C2.03906 6.125 1.875 6.3125 1.875 6.5C1.875 6.71094 2.03906 6.875 2.25 6.875H6.75C6.9375 6.875 7.125 6.71094 7.125 6.5C7.125 6.3125 6.9375 6.125 6.75 6.125H2.25Z" fill="#212121" fill-opacity="0.64"/>
</svg>
