<svg width="11" height="11" viewBox="0 0 11 11" fill="none" xmlns="http://www.w3.org/2000/svg">
<path d="M10.3984 2.54688C10.5859 2.73438 10.75 3.08594 10.75 3.34375V9.25C10.75 10.0938 10.0703 10.75 9.25 10.75H1.75C0.90625 10.75 0.25 10.0938 0.25 9.25V1.75C0.25 0.929688 0.90625 0.25 1.75 0.25H7.65625C7.91406 0.25 8.26562 0.414062 8.42969 0.578125L10.3984 2.54688ZM5.5 9.25C6.32031 9.25 7 8.59375 7 7.75C7 6.92969 6.32031 6.25 5.5 6.25C4.65625 6.25 4 6.92969 4 7.75C4 8.59375 4.65625 9.25 5.5 9.25ZM7.75 4.375V2.125C7.75 1.9375 7.5625 1.75 7.375 1.75H2.125C1.91406 1.75 1.75 1.9375 1.75 2.125V4.375C1.75 4.58594 1.91406 4.75 2.125 4.75H7.375C7.5625 4.75 7.75 4.58594 7.75 4.375Z" fill="#212121" fill-opacity="0.64"/>
</svg>
