<svg width="11" height="13" viewBox="0 0 11 13" fill="none" xmlns="http://www.w3.org/2000/svg">
<path d="M3.41406 0.921875C3.53125 0.664062 3.78906 0.5 4.07031 0.5H6.90625C7.1875 0.5 7.44531 0.664062 7.5625 0.921875L7.75 1.25H10C10.3984 1.25 10.75 1.60156 10.75 2C10.75 2.42188 10.3984 2.75 10 2.75H1C0.578125 2.75 0.25 2.42188 0.25 2C0.25 1.60156 0.578125 1.25 1 1.25H3.25L3.41406 0.921875ZM9.48438 11.4453C9.46094 12.0547 8.96875 12.5 8.35938 12.5H2.61719C2.00781 12.5 1.51562 12.0547 1.49219 11.4453L0.976562 3.5H10L9.48438 11.4453Z" fill="#212121" fill-opacity="0.64"/>
</svg>
